<?xml version="1.0" encoding="UTF-8"?>
<svg version="1.1" xmlns="http://www.w3.org/2000/svg" width="500" height="500">
<path d="M0 0 C165 0 330 0 500 0 C500 165 500 330 500 500 C335 500 170 500 0 500 C0 335 0 170 0 0 Z " fill="#000000" transform="translate(0,0)"/>
<path d="M0 0 C2.97 0.495 2.97 0.495 6 1 C6 34.66 6 68.32 6 103 C6.99 103 7.98 103 9 103 C9 103.99 9 104.98 9 106 C8.34 106 7.68 106 7 106 C6.505 107.485 6.505 107.485 6 109 C4.02 109.33 2.04 109.66 0 110 C-0.33 108.68 -0.66 107.36 -1 106 C-3.31 106 -5.62 106 -8 106 C-8 112.27 -8 118.54 -8 125 C-8.99 125 -9.98 125 -11 125 C-10.67 118.73 -10.34 112.46 -10 106 C-11.98 106 -13.96 106 -16 106 C-15.67 112.27 -15.34 118.54 -15 125 C-15.99 125 -16.98 125 -18 125 C-17.67 118.73 -17.34 112.46 -17 106 C-18.65 105.67 -20.3 105.34 -22 105 C-22.33 109.95 -22.66 114.9 -23 120 C-22.34 120 -21.68 120 -21 120 C-21 121.65 -21 123.3 -21 125 C-22.32 125 -23.64 125 -25 125 C-24.94239502 124.34628418 -24.88479004 123.69256836 -24.82543945 123.01904297 C-23.2825454 108.27171778 -23.2825454 108.27171778 -28.42822266 94.96313477 C-30.36477902 92.75370892 -32.36967127 90.64103484 -34.46435547 88.58105469 C-37.05857457 85.91012258 -39.21933604 82.92108674 -41.4375 79.9375 C-44.25474557 76.25697984 -47.10377208 72.6202849 -50 69 C-50.33 81.21 -50.66 93.42 -51 106 C-57.93 106 -64.86 106 -72 106 C-72 76.63 -72 47.26 -72 17 C-65.07 17 -58.14 17 -51 17 C-50.67 29.54 -50.34 42.08 -50 55 C-48.205625 52.6075 -46.41125 50.215 -44.5625 47.75 C-43.96864502 46.95867676 -43.37479004 46.16735352 -42.76293945 45.35205078 C-40.33056869 42.11070739 -37.89963363 38.86840298 -35.48046875 35.6171875 C-34.0177417 33.6549302 -32.53646329 31.70633722 -31.03515625 29.7734375 C-28.94313707 27.04824508 -28.94313707 27.04824508 -27.37109375 24.0390625 C-25.43904775 20.83841089 -24.15936339 19.0414348 -21 17 C-14.41856462 15.79677682 -7.6231974 16.38498881 -1 17 C-1.01160156 15.85660156 -1.02320313 14.71320313 -1.03515625 13.53515625 C-1.04453288 12.04427246 -1.05363321 10.55338691 -1.0625 9.0625 C-1.07087891 8.30775391 -1.07925781 7.55300781 -1.08789062 6.77539062 C-1.09652441 4.85005687 -1.05224333 2.92464419 -1 1 C-0.67 0.67 -0.34 0.34 0 0 Z " fill="#E0EDF8" transform="translate(253,187)"/>
<path d="M0 0 C0.33 0 0.66 0 1 0 C1.33 7.59 1.66 15.18 2 23 C4.97 21.02 7.94 19.04 11 17 C23.31175067 12.14009842 34.80773236 13.10615924 47 18 C52.85625111 21.08784149 57.1931852 25.71488218 60.375 31.5 C61 34 61 34 61 41 C53.41 41 45.82 41 38 41 C37.34 39.35 36.68 37.7 36 36 C33.70228604 33.65653509 32.48511233 33.05081484 29.203125 32.70703125 C28.22859375 32.74183594 27.2540625 32.77664062 26.25 32.8125 C25.26515625 32.83957031 24.2803125 32.86664063 23.265625 32.89453125 C22.14414062 32.94673828 22.14414062 32.94673828 21 33 C19.79223794 36.62328619 19.59959108 39.19611527 20 43 C23.91194896 46.95806231 28.44658106 48.53181178 33.5625 50.375 C55.99993995 58.83784663 55.99993995 58.83784663 61 67 C63.15376774 73.46130323 63.35392189 83.09335934 60.5625 89.4375 C55.7128004 97.19363977 48.8075954 101.8973112 40.10546875 104.37890625 C27.8758682 106.82482636 15.70355847 104.22752493 5 98 C3.97347077 97.02725248 2.96567553 96.03318477 2 95 C1.67 96.98 1.34 98.96 1 101 C0.67 101 0.34 101 0 101 C0 67.67 0 34.34 0 0 Z " fill="#FA6204" transform="translate(259,189)"/>
<path d="M0 0 C0.66 0 1.32 0 2 0 C2 4.95 2 9.9 2 15 C4.97 15 7.94 15 11 15 C11 18.96 11 22.92 11 27 C12.98 27 14.96 27 17 27 C16.505 16.605 16.505 16.605 16 6 C16.66 6 17.32 6 18 6 C18.02505615 6.61520508 18.0501123 7.23041016 18.07592773 7.86425781 C18.19218487 10.65970156 18.31477642 13.45483298 18.4375 16.25 C18.47681641 17.21808594 18.51613281 18.18617188 18.55664062 19.18359375 C18.59853516 20.11816406 18.64042969 21.05273438 18.68359375 22.015625 C18.73858032 23.30388184 18.73858032 23.30388184 18.79467773 24.61816406 C18.98703514 26.84960143 19.38846244 28.84982524 20 31 C20.66 30.67 21.32 30.34 22 30 C22 30.66 22 31.32 22 32 C23.32 32 24.64 32 26 32 C26 30.35 26 28.7 26 27 C25.34 27 24.68 27 24 27 C24 21.72 24 16.44 24 11 C25.98 11.66 27.96 12.32 30 13 C30 19.6 30 26.2 30 33 C49.305 33.495 49.305 33.495 69 34 C69 31.36 69 28.72 69 26 C67.02 26 65.04 26 63 26 C62.505 20.555 62.505 20.555 62 15 C62.66 15 63.32 15 64 15 C64 18.3 64 21.6 64 25 C65.98 25 67.96 25 70 25 C70 27.97 70 30.94 70 34 C76.93 34 83.86 34 91 34 C91 41.26 91 48.52 91 56 C89.02 56 87.04 56 85 56 C85 61.94 85 67.88 85 74 C88.63 73.67 92.26 73.34 96 73 C96.33 73.66 96.66 74.32 97 75 C92.71 75 88.42 75 84 75 C84 68.73 84 62.46 84 56 C81.36 56 78.72 56 76 56 C76 64.58 76 73.16 76 82 C72.37 82 68.74 82 65 82 C65 81.34 65 80.68 65 80 C68.3 80 71.6 80 75 80 C75 72.08 75 64.16 75 56 C73.68 56 72.36 56 71 56 C71 62.6 71 69.2 71 76 C70.67 76 70.34 76 70 76 C70 69.4 70 62.8 70 56 C68.68 56 67.36 56 66 56 C66 63.59 66 71.18 66 79 C56.27392766 79.12311484 46.70259982 78.62597418 37 78 C36.67 70.74 36.34 63.48 36 56 C35.01 56 34.02 56 33 56 C33 65.24 33 74.48 33 84 C40.92 83.505 40.92 83.505 49 83 C49 83.99 49 84.98 49 86 C43.06 85.67 37.12 85.34 31 85 C30.67 75.43 30.34 65.86 30 56 C29.01 56 28.02 56 27 56 C27 56.99 27 57.98 27 59 C26.34 59 25.68 59 25 59 C25.33 67.58 25.66 76.16 26 85 C25.01 85 24.02 85 23 85 C23 75.43 23 65.86 23 56 C22.01 56 21.02 56 20 56 C19.67 68.54 19.34 81.08 19 94 C14.05 94.33 9.1 94.66 4 95 C4 94.34 4 93.68 4 93 C8.62 93 13.24 93 18 93 C17.67 80.79 17.34 68.58 17 56 C16.01 56 15.02 56 14 56 C14 56.99 14 57.98 14 59 C13.34 59 12.68 59 12 59 C12 68.57 12 78.14 12 88 C11.34 88 10.68 88 10 88 C10 77.44 10 66.88 10 56 C9.01 56 8.02 56 7 56 C7 56.99 7 57.98 7 59 C6.34 59 5.68 59 5 59 C5 69.56 5 80.12 5 91 C-1.435 91.495 -1.435 91.495 -8 92 C-8 91.01 -8 90.02 -8 89 C-4.04 89.33 -0.08 89.66 4 90 C4 78.78 4 67.56 4 56 C3.01 56 2.02 56 1 56 C1 56.99 1 57.98 1 59 C0.34 59 -0.32 59 -1 59 C-0.98839844 59.99902344 -0.97679687 60.99804688 -0.96484375 62.02734375 C-0.95582031 63.31769531 -0.94679687 64.60804688 -0.9375 65.9375 C-0.92589844 67.22527344 -0.91429687 68.51304687 -0.90234375 69.83984375 C-1 73 -1 73 -2 74 C-4.34987262 74.23527773 -6.70556039 74.41386417 -9.0625 74.5625 C-10.35285156 74.64628906 -11.64320313 74.73007812 -12.97265625 74.81640625 C-13.97167969 74.87699219 -14.97070312 74.93757813 -16 75 C-16 74.01 -16 73.02 -16 72 C-11.71 72 -7.42 72 -3 72 C-3 66.72 -3 61.44 -3 56 C-4.65 56 -6.3 56 -8 56 C-8 54.68 -8 53.36 -8 52 C-8.99 52 -9.98 52 -11 52 C-11 51.34 -11 50.68 -11 50 C-16.28 50 -21.56 50 -27 50 C-27 54.95 -27 59.9 -27 65 C-27.99 65 -28.98 65 -30 65 C-29.67 59.72 -29.34 54.44 -29 49 C-22.07 49 -15.14 49 -8 49 C-8 47.68 -8 46.36 -8 45 C-18.23 44.67 -28.46 44.34 -39 44 C-39.33 37.73 -39.66 31.46 -40 25 C-39.01 25 -38.02 25 -37 25 C-37 30.94 -37 36.88 -37 43 C-27.43 42.67 -17.86 42.34 -8 42 C-8 41.01 -8 40.02 -8 39 C-8.99 39 -9.98 39 -11 39 C-11 38.34 -11 37.68 -11 37 C-17.6 37.33 -24.2 37.66 -31 38 C-30.67 37.01 -30.34 36.02 -30 35 C-29.42556152 35.01047363 -28.85112305 35.02094727 -28.25927734 35.03173828 C-25.63123023 35.07357099 -23.00325346 35.099412 -20.375 35.125 C-19.01955078 35.15013672 -19.01955078 35.15013672 -17.63671875 35.17578125 C-12.67249848 35.21201643 -8.65588093 34.96444146 -4 33 C-4 31.02 -4 29.04 -4 27 C-3.34 27 -2.68 27 -2 27 C-2 26.34 -2 25.68 -2 25 C-11.9 25.495 -11.9 25.495 -22 26 C-22 25.34 -22 24.68 -22 24 C-18.541824 23.9131671 -15.08392656 23.85966718 -11.625 23.8125 C-10.64015625 23.78736328 -9.6553125 23.76222656 -8.640625 23.73632812 C-7.22910156 23.72182617 -7.22910156 23.72182617 -5.7890625 23.70703125 C-4.91975098 23.6913208 -4.05043945 23.67561035 -3.15478516 23.65942383 C-2.44370605 23.77181396 -1.73262695 23.8842041 -1 24 C-0.34 24.99 0.32 25.98 1 27 C1.99 27 2.98 27 4 27 C4 25.02 4 23.04 4 21 C0.04 21.33 -3.92 21.66 -8 22 C-8 21.01 -8 20.02 -8 19 C-3.71 19.33 0.58 19.66 5 20 C5.495 25.94 5.495 25.94 6 32 C6.99 32.33 7.98 32.66 9 33 C9.33 27.39 9.66 21.78 10 16 C7.03 16 4.06 16 1 16 C0.67 10.72 0.34 5.44 0 0 Z " fill="#B3B6BB" transform="translate(206,280)"/>
<path d="M0 0 C6.93 0 13.86 0 21 0 C21.06058594 2.86429688 21.12117188 5.72859375 21.18359375 8.6796875 C21.24535977 11.44647933 21.30875715 14.21322928 21.37231445 16.97998047 C21.41569001 18.90637504 21.45736314 20.83280871 21.49731445 22.75927734 C21.55495362 25.52453408 21.61866616 28.2895935 21.68359375 31.0546875 C21.70030624 31.9193161 21.71701874 32.7839447 21.73423767 33.67477417 C21.72159896 37.97395852 21.72159896 37.97395852 23 42 C23.04254356 43.99954746 23.04080783 46.00041636 23 48 C23 48.99 23 49.98 23 51 C22.34 50.67 21.68 50.34 21 50 C21 62.87 21 75.74 21 89 C14.07 89 7.14 89 0 89 C0 59.63 0 30.26 0 0 Z M24 43 C24.33 43 24.66 43 25 43 C25 44.98 25 46.96 25 49 C24.34 48.34 23.68 47.68 23 47 C23.375 44.875 23.375 44.875 24 43 Z " fill="#E3F0FC" transform="translate(181,204)"/>
<path d="M0 0 C0.54527344 0.39832031 1.09054687 0.79664063 1.65234375 1.20703125 C12.16458138 8.59255205 23.18102154 11.11604166 36 10 C43.31699782 8.35613236 49.20611706 5.74044967 55 1 C55.495 2.98 55.495 2.98 56 5 C52.33708062 7.47785723 49.3890815 8.48964169 45 9 C45.99 11.475 45.99 11.475 47 14 C46.01 14 45.02 14 44 14 C44 13.34 44 12.68 44 12 C43.01 12 42.02 12 41 12 C41 12.66 41 13.32 41 14 C38.69 14.33 36.38 14.66 34 15 C33.67 16.32 33.34 17.64 33 19 C37.95 19 42.9 19 48 19 C48 19.99 48 20.98 48 22 C44.04 22 40.08 22 36 22 C36 24.97 36 27.94 36 31 C29.4 31 22.8 31 16 31 C16 28.03 16 25.06 16 22 C14.02 22 12.04 22 10 22 C10 18.7 10 15.4 10 12 C8.74050951 13.03406673 8.74050951 13.03406673 8.90234375 15.28515625 C8.91394531 16.20167969 8.92554688 17.11820312 8.9375 18.0625 C8.94652344 18.98160156 8.95554687 19.90070313 8.96484375 20.84765625 C8.97644531 21.55792969 8.98804688 22.26820313 9 23 C10.98 23 12.96 23 15 23 C15 25.64 15 28.28 15 31 C2.13 31 -10.74 31 -24 31 C-24.33 30.34 -24.66 29.68 -25 29 C-24.01 29 -23.02 29 -22 29 C-22.16371094 28.32582031 -22.32742187 27.65164063 -22.49609375 26.95703125 C-23.0875358 23.48632094 -23.09539046 20.20677876 -23.0625 16.6875 C-23.05347656 15.43324219 -23.04445312 14.17898438 -23.03515625 12.88671875 C-23.01775391 11.45779297 -23.01775391 11.45779297 -23 10 C-21.02 10 -19.04 10 -17 10 C-16.97285265 12.22909871 -16.95353746 14.45829367 -16.9375 16.6875 C-16.92589844 17.92886719 -16.91429687 19.17023438 -16.90234375 20.44921875 C-16.98521327 23.46235454 -17.29160551 26.08275339 -18 29 C-17.01 29 -16.02 29 -15 29 C-15 22.73 -15 16.46 -15 10 C-12.69 10 -10.38 10 -8 10 C-7.67 10.99 -7.34 11.98 -7 13 C-5.02 13 -3.04 13 -1 13 C-0.67 11.68 -0.34 10.36 0 9 C0.66 9.33 1.32 9.66 2 10 C2 9.01 2 8.02 2 7 C1.34 7 0.68 7 0 7 C0 4.69 0 2.38 0 0 Z " fill="#130603" transform="translate(260,283)"/>
<path d="M0 0 C0.33 0 0.66 0 1 0 C1 23.76 1 47.52 1 72 C0.34 71.67 -0.32 71.34 -1 71 C-1 66.71 -1 62.42 -1 58 C-1.66 58 -2.32 58 -3 58 C-2.67 60.97 -2.34 63.94 -2 67 C-5.96529066 65.67823645 -6.89819507 63.79064953 -9.375 60.4375 C-13.50462695 54.91847321 -17.76470643 49.52625638 -22.125 44.1875 C-22.70556152 43.47585693 -23.28612305 42.76421387 -23.88427734 42.03100586 C-25.25475762 40.35283731 -26.62716158 38.67624001 -28 37 C-26.11470724 33.01190146 -23.56022785 29.73783182 -20.8125 26.3125 C-19.81231816 25.05352985 -18.81231791 23.79441543 -17.8125 22.53515625 C-17.3278125 21.92687988 -16.843125 21.31860352 -16.34375 20.69189453 C-14.64904235 18.55811474 -12.97872748 16.4060675 -11.3125 14.25 C-8.76145363 10.97008324 -6.20123057 7.69768558 -3.625 4.4375 C-2.95726562 3.59058594 -2.28953125 2.74367187 -1.6015625 1.87109375 C-1.07304687 1.25363281 -0.54453125 0.63617188 0 0 Z " fill="#0B0D0F" transform="translate(251,212)"/>
<path d="M0 0 C2.31 0 4.62 0 7 0 C6.01 1.485 6.01 1.485 5 3 C4.65777555 7.65417169 4.65777555 7.65417169 6 12 C8.91634129 12.2502157 8.91634129 12.2502157 12 12 C12.66 11.01 13.32 10.02 14 9 C13.34 9 12.68 9 12 9 C12 9.66 12 10.32 12 11 C10.33388095 11.042721 8.66617115 11.04063832 7 11 C6 10 6 10 5.875 7.0625 C6 4 6 4 7 2 C8.65 2.33 10.3 2.66 12 3 C12 3.66 12 4.32 12 5 C12.66 5 13.32 5 14 5 C13.01 3.35 12.02 1.7 11 0 C13.64 0 16.28 0 19 0 C18.67 0.99 18.34 1.98 18 3 C17.82187376 5.6928496 17.91272302 8.29441368 18 11 C19.0595877 12.28322547 19.0595877 12.28322547 21.5 12.125 C23.9404123 12.28322547 23.9404123 12.28322547 25 11 C25.25910191 9.52887696 25.45873776 8.04698431 25.625 6.5625 C25.72039062 5.75941406 25.81578125 4.95632813 25.9140625 4.12890625 C26.17384017 1.94524234 26.17384017 1.94524234 25 0 C26.32 0 27.64 0 29 0 C29 4.29 29 8.58 29 13 C32.43230448 12.73606499 32.43230448 12.73606499 36 12 C38.17175481 8.74236778 38.46043998 7.77560787 38 4 C36.60042803 1.71515694 36.60042803 1.71515694 35 0 C37.31 0 39.62 0 42 0 C42 4.29 42 8.58 42 13 C42.33 12.67 42.66 12.34 43 12 C43 11.2575 43 10.515 43 9.75 C43 7.02107249 43.39369882 4.65256767 44 2 C45.98 2 47.96 2 50 2 C50 1.34 50 0.68 50 0 C55.61 0 61.22 0 67 0 C66.67 4.29 66.34 8.58 66 13 C66.99 13 67.98 13 69 13 C69 11.68 69 10.36 69 9 C72 10 72 10 73 12 C73.66 12 74.32 12 75 12 C74.46375 11.2575 73.9275 10.515 73.375 9.75 C72 7 72 7 72.6875 4.875 C73.120625 4.25625 73.55375 3.6375 74 3 C74.66 2.01 75.32 1.02 76 0 C78.625 -0.1875 78.625 -0.1875 81 0 C80.34 0.66 79.68 1.32 79 2 C78.83312552 4.58354218 78.83312552 4.58354218 79 7 C80.65 7.33 82.3 7.66 84 8 C84 8.99 84 9.98 84 11 C81.83125748 10.49396008 80.00032373 10.00016187 78 9 C78 9.99 78 10.98 78 12 C80.31 12 82.62 12 85 12 C85.33 10.68 85.66 9.36 86 8 C85.175 7.54625 84.35 7.0925 83.5 6.625 C82.675 6.08875 81.85 5.5525 81 5 C81 4.34 81 3.68 81 3 C82.65 3 84.3 3 86 3 C86 2.34 86 1.68 86 1 C85.01 0.505 85.01 0.505 84 0 C87.63 0 91.26 0 95 0 C95 5.28 95 10.56 95 16 C63.65 16 32.3 16 0 16 C0 10.72 0 5.44 0 0 Z " fill="#09080A" transform="translate(200,317)"/>
<path d="M0 0 C2.97 0.495 2.97 0.495 6 1 C6 34.66 6 68.32 6 103 C6.99 103 7.98 103 9 103 C9 103.99 9 104.98 9 106 C8.34 106 7.68 106 7 106 C6.01 106.99 6.01 106.99 5 108 C4.01 107.34 3.02 106.68 2 106 C2 105.67 2 105.34 2 105 C-0.64 105 -3.28 105 -6 105 C-5.690625 104.401875 -5.38125 103.80375 -5.0625 103.1875 C-3.89790296 100.91043228 -3.89790296 100.91043228 -3 98 C-2.34 98 -1.68 98 -1 98 C-1.08447387 88.45508394 -1.17938455 78.91034479 -1.28752708 69.36566734 C-1.33741902 64.9334258 -1.38374959 60.50120727 -1.421875 56.06884766 C-1.45881765 51.78935443 -1.50520179 47.51005712 -1.55806351 43.23073196 C-1.57655981 41.60014923 -1.59168527 39.96952458 -1.60334396 38.33887863 C-1.6202883 36.05042315 -1.64934218 33.76241169 -1.68115234 31.47412109 C-1.69447601 30.17284271 -1.70779968 28.87156433 -1.7215271 27.53085327 C-1.99703488 24.03759581 -2.74011381 21.25601041 -4 18 C-3.34 17.67 -2.68 17.34 -2 17 C-1.7137306 14.30847736 -1.53256862 11.69902132 -1.4375 9 C-1.11929275 1.11929275 -1.11929275 1.11929275 0 0 Z " fill="#E6F0FA" transform="translate(253,187)"/>
<path d="M0 0 C3.89011103 3.11208882 5.78704471 4.76867937 8.4375 8.625 C10.98937849 12.33235333 13.60257451 15.72081755 16.62890625 19.0546875 C24.3250292 27.7543569 28.39923941 33.88379641 27.9765625 45.71875 C27.60295393 50.14868016 26.76495409 53.38318016 24 57 C23.67 57 23.34 57 23 57 C22.22471521 53.57426063 21.88081222 50.42760755 21.90234375 46.91796875 C21.90556641 45.98662109 21.90878906 45.05527344 21.91210938 44.09570312 C21.92048828 43.13599609 21.92886719 42.17628906 21.9375 41.1875 C21.94201172 40.20845703 21.94652344 39.22941406 21.95117188 38.22070312 C21.96291316 35.81373889 21.97933581 33.40690143 22 31 C21.34 31 20.68 31 20 31 C20.33 31.66 20.66 32.32 21 33 C21.08342159 34.44848582 21.10732861 35.90070869 21.09765625 37.3515625 C21.09443359 38.20234375 21.09121094 39.053125 21.08789062 39.9296875 C21.07951172 40.81914062 21.07113281 41.70859375 21.0625 42.625 C21.05798828 43.5221875 21.05347656 44.419375 21.04882812 45.34375 C21.03702591 47.56256648 21.02056155 49.78125018 21 52 C17.25 53.125 17.25 53.125 15 52 C15 48.04 15 44.08 15 40 C12.03 40 9.06 40 6 40 C6 35.05 6 30.1 6 25 C5.34 25 4.68 25 4 25 C4 25.66 4 26.32 4 27 C3.01 27 2.02 27 1 27 C1 30.63 1 34.26 1 38 C0.67 38 0.34 38 0 38 C0 25.46 0 12.92 0 0 Z " fill="#0C0E10" transform="translate(202,255)"/>
<path d="M0 0 C31.68 0 63.36 0 96 0 C96 5.94 96 11.88 96 18 C64.32 18 32.64 18 0 18 C0 17.67 0 17.34 0 17 C31.35 17 62.7 17 95 17 C95 11.72 95 6.44 95 1 C90.545 1.495 90.545 1.495 86 2 C86.495 3.485 86.495 3.485 87 5 C85.02 4.67 83.04 4.34 81 4 C82.93254772 6.0245738 84.63158688 7.42105792 87 9 C86.125 12.875 86.125 12.875 85 14 C82.66055264 13.71269945 80.3260857 13.38063221 78 13 C78 12.01 78 11.02 78 10 C79.98 10.66 81.96 11.32 84 12 C84 11.01 84 10.02 84 9 C82.35 8.67 80.7 8.34 79 8 C78.61781233 6.34385343 78.28604898 4.67542976 78 3 C78.33 2.67 78.66 2.34 79 2 C78.01 1.67 77.02 1.34 76 1 C74.79371992 3.33214148 73.8345262 5.49642139 73 8 C74.37492804 11.1668838 74.37492804 11.1668838 76 14 C72.73045798 13.43628586 71.17424117 12.50037734 69 10 C69 11.32 69 12.64 69 14 C68.01 14 67.02 14 66 14 C66 10.04 66 6.08 66 2 C60.72 1.67 55.44 1.34 50 1 C50 1.66 50 2.32 50 3 C48.02 3 46.04 3 44 3 C44 4.32 44 5.64 44 7 C45.65 7 47.3 7 49 7 C49 7.33 49 7.66 49 8 C47.02 8 45.04 8 43 8 C43 9.65 43 11.3 43 13 C45.31 13 47.62 13 50 13 C50 13.33 50 13.66 50 14 C47.36 14 44.72 14 42 14 C42 9.71 42 5.42 42 1 C40.02 1.33 38.04 1.66 36 2 C36.515625 2.350625 37.03125 2.70125 37.5625 3.0625 C39 5 39 5 38.8125 8.5625 C38 12 38 12 36 14 C32.375 14.125 32.375 14.125 29 14 C29 9.71 29 5.42 29 1 C26.60063069 3.39936931 26.7133711 4.214085 26.5 7.5 C26.22222222 11.77777778 26.22222222 11.77777778 24 14 C21.5 14.25 21.5 14.25 19 14 C17 12 17 12 16.76953125 10.125 C16.78371094 9.42375 16.79789063 8.7225 16.8125 8 C16.81894531 7.29875 16.82539063 6.5975 16.83203125 5.875 C17 4 17 4 18 2 C16.02 2 14.04 2 12 2 C12.66 3.32 13.32 4.64 14 6 C13.34 6 12.68 6 12 6 C11.67 5.34 11.34 4.68 11 4 C8.97536745 3.34786708 8.97536745 3.34786708 7 3 C7 5.64 7 8.28 7 11 C8.65 11.33 10.3 11.66 12 12 C12 11.34 12 10.68 12 10 C12.66 10 13.32 10 14 10 C13.34 11.32 12.68 12.64 12 14 C9.125 14.1875 9.125 14.1875 6 14 C3.55102153 10.32653229 3.68462284 8.33643601 4 4 C4.66 3.34 5.32 2.68 6 2 C3.03 1.505 3.03 1.505 0 1 C0 0.67 0 0.34 0 0 Z " fill="#909292" transform="translate(200,316)"/>
<path d="M0 0 C4.455 2.97 4.455 2.97 9 6 C12.1467155 7.45368795 12.1467155 7.45368795 15.171875 8.37890625 C16.24824219 8.74306641 17.32460938 9.10722656 18.43359375 9.48242188 C20.65980834 10.20744936 22.88637608 10.93139328 25.11328125 11.65429688 C35.43079382 15.14933874 35.43079382 15.14933874 39 20 C39.625 23 39.625 23 39 26 C36.827365 28.57285724 35.02006162 30.48996919 32 32 C27.68475797 32.04165292 24.07430819 31.75201573 20.5 29.25 C19 27 19 27 18 22 C12.06 22 6.12 22 0 22 C0 14.74 0 7.48 0 0 Z " fill="#040103" transform="translate(260,245)"/>
<path d="M0 0 C6.6 0 13.2 0 20 0 C19.67 2.31 19.34 4.62 19 7 C19.99 7 20.98 7 22 7 C21.67 4.69 21.34 2.38 21 0 C22.32 0 23.64 0 25 0 C25 7.26 25 14.52 25 22 C18 22 18 22 16 21 C13.12089412 20.76725791 10.25853505 20.58027243 7.375 20.4375 C6.57320312 20.39431641 5.77140625 20.35113281 4.9453125 20.30664062 C2.9637489 20.20048543 0.98189729 20.09973145 -1 20 C-1.02696009 17.2291017 -1.04681952 14.4584655 -1.0625 11.6875 C-1.07087891 10.90181641 -1.07925781 10.11613281 -1.08789062 9.30664062 C-1.09111328 8.54931641 -1.09433594 7.79199219 -1.09765625 7.01171875 C-1.10289307 6.31522217 -1.10812988 5.61872559 -1.11352539 4.90112305 C-1 3 -1 3 0 0 Z " fill="#050103" transform="translate(246,336)"/>
<path d="M0 0 C0.66 0 1.32 0 2 0 C2 4.95 2 9.9 2 15 C4.97 15 7.94 15 11 15 C11 18.96 11 22.92 11 27 C12.98 27 14.96 27 17 27 C16.505 16.605 16.505 16.605 16 6 C16.66 6 17.32 6 18 6 C18.02505615 6.61520508 18.0501123 7.23041016 18.07592773 7.86425781 C18.19218487 10.65970156 18.31477642 13.45483298 18.4375 16.25 C18.47681641 17.21808594 18.51613281 18.18617188 18.55664062 19.18359375 C18.59853516 20.11816406 18.64042969 21.05273438 18.68359375 22.015625 C18.73858032 23.30388184 18.73858032 23.30388184 18.79467773 24.61816406 C18.98703514 26.84960143 19.38846244 28.84982524 20 31 C20.66 30.67 21.32 30.34 22 30 C22 30.66 22 31.32 22 32 C23.32 32 24.64 32 26 32 C26 30.35 26 28.7 26 27 C25.34 27 24.68 27 24 27 C24 21.72 24 16.44 24 11 C25.98 11.66 27.96 12.32 30 13 C30 19.6 30 26.2 30 33 C49.305 33.495 49.305 33.495 69 34 C69 31.36 69 28.72 69 26 C67.02 26 65.04 26 63 26 C62.505 20.555 62.505 20.555 62 15 C62.66 15 63.32 15 64 15 C64 18.3 64 21.6 64 25 C65.98 25 67.96 25 70 25 C70 27.97 70 30.94 70 34 C76.93 34 83.86 34 91 34 C91 34.33 91 34.66 91 35 C58.33 35 25.66 35 -8 35 C-6.68 34.34 -5.36 33.68 -4 33 C-4 31.02 -4 29.04 -4 27 C-3.34 27 -2.68 27 -2 27 C-2 26.34 -2 25.68 -2 25 C-8.6 25.33 -15.2 25.66 -22 26 C-22 25.34 -22 24.68 -22 24 C-18.541824 23.9131671 -15.08392656 23.85966718 -11.625 23.8125 C-10.64015625 23.78736328 -9.6553125 23.76222656 -8.640625 23.73632812 C-7.22910156 23.72182617 -7.22910156 23.72182617 -5.7890625 23.70703125 C-4.91975098 23.6913208 -4.05043945 23.67561035 -3.15478516 23.65942383 C-2.44370605 23.77181396 -1.73262695 23.8842041 -1 24 C-0.34 24.99 0.32 25.98 1 27 C1.99 27 2.98 27 4 27 C4 25.02 4 23.04 4 21 C0.04 21.33 -3.92 21.66 -8 22 C-8 21.01 -8 20.02 -8 19 C-3.71 19.33 0.58 19.66 5 20 C5.33 23.96 5.66 27.92 6 32 C7.485 32.495 7.485 32.495 9 33 C9.33 27.39 9.66 21.78 10 16 C7.03 16 4.06 16 1 16 C0.67 10.72 0.34 5.44 0 0 Z " fill="#03070C" transform="translate(206,280)"/>
<path d="M0 0 C0.99 0.33 1.98 0.66 3 1 C3 6.94 3 12.88 3 19 C0.03 19 -2.94 19 -6 19 C-6 19.66 -6 20.32 -6 21 C-1.71 21 2.58 21 7 21 C7 21.33 7 21.66 7 22 C-2.9 22 -12.8 22 -23 22 C-23.33 21.34 -23.66 20.68 -24 20 C-23.01 20 -22.02 20 -21 20 C-21.16371094 19.32582031 -21.32742187 18.65164063 -21.49609375 17.95703125 C-22.0875358 14.48632094 -22.09539046 11.20677876 -22.0625 7.6875 C-22.05347656 6.43324219 -22.04445312 5.17898438 -22.03515625 3.88671875 C-22.01775391 2.45779297 -22.01775391 2.45779297 -22 1 C-20.02 1 -18.04 1 -16 1 C-15.97285265 3.22909871 -15.95353746 5.45829367 -15.9375 7.6875 C-15.92589844 8.92886719 -15.91429687 10.17023438 -15.90234375 11.44921875 C-15.98521327 14.46235454 -16.29160551 17.08275339 -17 20 C-16.01 20 -15.02 20 -14 20 C-14 13.73 -14 7.46 -14 1 C-11.69 1 -9.38 1 -7 1 C-6.67 1.99 -6.34 2.98 -6 4 C-4.02 4 -2.04 4 0 4 C0 2.68 0 1.36 0 0 Z " fill="#050406" transform="translate(259,292)"/>
<path d="M0 0 C0.99 0 1.98 0 3 0 C3 5.94 3 11.88 3 18 C12.57 17.67 22.14 17.34 32 17 C32 16.01 32 15.02 32 14 C31.01 14 30.02 14 29 14 C29 13.34 29 12.68 29 12 C22.4 12.33 15.8 12.66 9 13 C9.33 12.01 9.66 11.02 10 10 C49.93 10 89.86 10 131 10 C131 16.6 131 23.2 131 30 C116.645 30.495 116.645 30.495 102 31 C102 33.31 102 35.62 102 38 C101.01 38 100.02 38 99 38 C99.33 35.36 99.66 32.72 100 30 C77.56 30 55.12 30 32 30 C32 29.01 32 28.02 32 27 C31.01 27 30.02 27 29 27 C29 26.34 29 25.68 29 25 C23.72 25 18.44 25 13 25 C13 29.95 13 34.9 13 40 C12.01 40 11.02 40 10 40 C10.33 34.72 10.66 29.44 11 24 C17.93 24 24.86 24 32 24 C32 22.68 32 21.36 32 20 C21.77 19.67 11.54 19.34 1 19 C0.67 12.73 0.34 6.46 0 0 Z M34 11 C34 16.94 34 22.88 34 29 C65.68 29 97.36 29 130 29 C130 23.06 130 17.12 130 11 C98.32 11 66.64 11 34 11 Z " fill="#E9ECF1" transform="translate(166,305)"/>
<path d="M0 0 C0.99 0 1.98 0 3 0 C4.06637334 3.19912001 4.12921706 5.5137746 4.1328125 8.875 C4.13410156 10.02484375 4.13539063 11.1746875 4.13671875 12.359375 C4.13285156 13.56078125 4.12898437 14.7621875 4.125 16 C4.12886719 17.20140625 4.13273438 18.4028125 4.13671875 19.640625 C4.13542969 20.79046875 4.13414062 21.9403125 4.1328125 23.125 C4.13168457 24.17945313 4.13055664 25.23390625 4.12939453 26.3203125 C4 29 4 29 3 32 C3.66 32 4.32 32 5 32 C5 22.43 5 12.86 5 3 C5.66 3 6.32 3 7 3 C7 2.01 7 1.02 7 0 C7.99 0 8.98 0 10 0 C11.21077701 3.63233102 11.12444164 6.95121987 11.09765625 10.73046875 C11.0962413 11.48088943 11.09482635 12.23131012 11.09336853 13.00447083 C11.0877756 15.3988546 11.07522444 17.79314453 11.0625 20.1875 C11.05748408 21.81184761 11.05292134 23.43619668 11.04882812 25.06054688 C11.03780848 29.04040069 11.02054873 33.02018444 11 37 C6.38 37 1.76 37 -3 37 C-2.67 25.78 -2.34 14.56 -2 3 C-1.34 3 -0.68 3 0 3 C0 2.01 0 1.02 0 0 Z " fill="#090A0D" transform="translate(213,336)"/>
<path d="M0 0 C0.66 0.33 1.32 0.66 2 1 C1.67 4.96 1.34 8.92 1 13 C1.99 13 2.98 13 4 13 C4 11.68 4 10.36 4 9 C7 10 7 10 8 12 C8.66 12 9.32 12 10 12 C9.46375 11.2575 8.9275 10.515 8.375 9.75 C7 7 7 7 7.6875 4.875 C8.3371875 3.946875 8.3371875 3.946875 9 3 C9.66 2.01 10.32 1.02 11 0 C13.625 -0.1875 13.625 -0.1875 16 0 C15.34 0.66 14.68 1.32 14 2 C13.83312552 4.58354218 13.83312552 4.58354218 14 7 C16.475 7.495 16.475 7.495 19 8 C19 8.99 19 9.98 19 11 C16.83125748 10.49396008 15.00032373 10.00016187 13 9 C13 9.99 13 10.98 13 12 C15.31 12 17.62 12 20 12 C20.33 10.68 20.66 9.36 21 8 C19.7625 7.319375 19.7625 7.319375 18.5 6.625 C17.675 6.08875 16.85 5.5525 16 5 C16 4.34 16 3.68 16 3 C17.65 3 19.3 3 21 3 C21 2.34 21 1.68 21 1 C20.34 0.67 19.68 0.34 19 0 C22.63 0 26.26 0 30 0 C30 5.28 30 10.56 30 16 C19.77 16 9.54 16 -1 16 C-0.67 10.72 -0.34 5.44 0 0 Z " fill="#0A0303" transform="translate(265,317)"/>
<path d="M0 0 C14.85 0 29.7 0 45 0 C45 5.94 45 11.88 45 18 C13.32 18 -18.36 18 -51 18 C-51 17.67 -51 17.34 -51 17 C-19.65 17 11.7 17 44 17 C44 11.72 44 6.44 44 1 C39.545 1.495 39.545 1.495 35 2 C35.495 3.485 35.495 3.485 36 5 C34.02 4.67 32.04 4.34 30 4 C31.93254772 6.0245738 33.63158688 7.42105792 36 9 C35.125 12.875 35.125 12.875 34 14 C31.66055264 13.71269945 29.3260857 13.38063221 27 13 C27 12.01 27 11.02 27 10 C28.98 10.66 30.96 11.32 33 12 C33 11.01 33 10.02 33 9 C31.35 8.67 29.7 8.34 28 8 C27.61781233 6.34385343 27.28604898 4.67542976 27 3 C27.33 2.67 27.66 2.34 28 2 C27.01 1.67 26.02 1.34 25 1 C23.79371992 3.33214148 22.8345262 5.49642139 22 8 C23.37492804 11.1668838 23.37492804 11.1668838 25 14 C21.73045798 13.43628586 20.17424117 12.50037734 18 10 C18 11.32 18 12.64 18 14 C17.01 14 16.02 14 15 14 C15 10.04 15 6.08 15 2 C10.05 1.67 5.1 1.34 0 1 C0 0.67 0 0.34 0 0 Z " fill="#443F41" transform="translate(251,316)"/>
<path d="M0 0 C2.70308333 1.39283113 3.9207836 2.65421739 6 5 C6 6.32 6 7.64 6 9 C13.59 9 21.18 9 29 9 C29 6.69 29 4.38 29 2 C29.33 2 29.66 2 30 2 C30 4.64 30 7.28 30 10 C28.9330188 10.029729 28.9330188 10.029729 27.84448242 10.06005859 C24.62511184 10.15524867 21.4063955 10.26495229 18.1875 10.375 C17.06794922 10.4059375 15.94839844 10.436875 14.79492188 10.46875 C13.18520508 10.52675781 13.18520508 10.52675781 11.54296875 10.5859375 C10.55321045 10.6173584 9.56345215 10.6487793 8.54370117 10.68115234 C5.75924906 10.83773433 5.75924906 10.83773433 3 13 C3.33 13.66 3.66 14.32 4 15 C2.68 15 1.36 15 0 15 C0 15.66 0 16.32 0 17 C4.455 17.99 4.455 17.99 9 19 C9 19.66 9 20.32 9 21 C1.3259707 19.63847867 -7.89854959 17.40497559 -13 11 C-13.48686939 7.17459766 -13.53974912 4.91522677 -11.5625 1.5625 C-7.73750495 -0.76981406 -4.35927347 -0.88088946 0 0 Z " fill="#080204" transform="translate(291,221)"/>
<path d="M0 0 C5.09349717 0.24846328 7.99551801 1.94167006 11.6328125 5.3203125 C13 7 13 7 13.75 10.0625 C12.76720328 13.91178714 11.01625028 15.4864581 8 18 C4.50818376 19.74590812 0.71230057 18.8521117 -3 18 C-6.98749146 15.20875598 -6.99793997 14.01030015 -8 9 C-13.94 9 -19.88 9 -26 9 C-26 8.67 -26 8.34 -26 8 C-22.9166866 7.97088679 -19.83340875 7.95316318 -16.75 7.9375 C-15.87730469 7.92912109 -15.00460937 7.92074219 -14.10546875 7.91210938 C-13.26113281 7.90888672 -12.41679687 7.90566406 -11.546875 7.90234375 C-10.77182617 7.89710693 -9.99677734 7.89187012 -9.19824219 7.88647461 C-7.00716402 7.99963002 -5.10362139 8.39447552 -3 9 C-3 8.01 -3 7.02 -3 6 C-3.66 6 -4.32 6 -5 6 C-5 5.01 -5 4.02 -5 3 C-3.54119891 3.14107747 -2.08296449 3.28802415 -0.625 3.4375 C0.18710937 3.51871094 0.99921875 3.59992188 1.8359375 3.68359375 C4 4 4 4 6 5 C6 4.34 6 3.68 6 3 C4.02 2.34 2.04 1.68 0 1 C0 0.67 0 0.34 0 0 Z " fill="#1C0701" transform="translate(286,258)"/>
<path d="M0 0 C0.33 0 0.66 0 1 0 C1 25.74 1 51.48 1 78 C6.94 78 12.88 78 19 78 C19.99 80.31 20.98 82.62 22 85 C25.56170207 87.21403102 28.86803589 87.43041293 33 87 C36.71156874 85.23526445 36.71156874 85.23526445 39 82 C39.25860135 77.94857881 39.30441554 76.45662331 37 73 C37.99 73 38.98 73 40 73 C41.84645461 76.69290922 41.61454332 80.97874918 41 85 C38.625 87.0625 38.625 87.0625 36 88 C35.01 88.495 35.01 88.495 34 89 C28.16048208 89.39589952 24.0129679 89.17146949 19 86 C18.67 83.69 18.34 81.38 18 79 C12.72 79 7.44 79 2 79 C2 83.29 2 87.58 2 92 C2.66 92 3.32 92 4 92 C5.625 93.3125 5.625 93.3125 7 95 C7 95.99 7 96.98 7 98 C9.64 98.33 12.28 98.66 15 99 C15 99.66 15 100.32 15 101 C18.63 101 22.26 101 26 101 C26 101.99 26 102.98 26 104 C29.63 104 33.26 104 37 104 C37 104.33 37 104.66 37 105 C25.38984637 105.55580523 15.12356812 103.890076 5 98 C3.97347077 97.02725248 2.96567553 96.03318477 2 95 C1.67 96.98 1.34 98.96 1 101 C0.67 101 0.34 101 0 101 C0 67.67 0 34.34 0 0 Z " fill="#BB7F5C" transform="translate(259,189)"/>
<path d="M0 0 C0.66 0 1.32 0 2 0 C2 3.3 2 6.6 2 10 C3.98 10 5.96 10 8 10 C8 12.97 8 15.94 8 19 C14.93 19 21.86 19 29 19 C29 19.33 29 19.66 29 20 C-3.67 20 -36.34 20 -70 20 C-68.68 19.34 -67.36 18.68 -66 18 C-66 16.02 -66 14.04 -66 12 C-65.34 12 -64.68 12 -64 12 C-64 11.34 -64 10.68 -64 10 C-70.6 10.33 -77.2 10.66 -84 11 C-84 10.34 -84 9.68 -84 9 C-80.541824 8.9131671 -77.08392656 8.85966718 -73.625 8.8125 C-72.14773437 8.77479492 -72.14773437 8.77479492 -70.640625 8.73632812 C-69.22910156 8.72182617 -69.22910156 8.72182617 -67.7890625 8.70703125 C-66.91975098 8.6913208 -66.05043945 8.67561035 -65.15478516 8.65942383 C-64.44370605 8.77181396 -63.73262695 8.8842041 -63 9 C-62.01 10.485 -62.01 10.485 -61 12 C-60.01 12 -59.02 12 -58 12 C-58 10.02 -58 8.04 -58 6 C-63.94 6.495 -63.94 6.495 -70 7 C-70 6.01 -70 5.02 -70 4 C-65.71 4.33 -61.42 4.66 -57 5 C-56.8046875 8.09244792 -56.609375 11.18489583 -56.4140625 14.27734375 C-56.27742188 15.17582031 -56.14078125 16.07429688 -56 17 C-53.31102533 18.34448733 -51.18408351 18.16195764 -48.17333984 18.20532227 C-46.95222504 18.22526749 -45.73111023 18.24521271 -44.47299194 18.26576233 C-43.13564177 18.28274656 -41.79829025 18.29962537 -40.4609375 18.31640625 C-39.09615447 18.33697603 -37.73137782 18.35797251 -36.36660767 18.37937927 C-32.77292027 18.43459759 -29.1791754 18.48400787 -25.58538818 18.53222656 C-21.91885254 18.58244337 -18.25240044 18.63812849 -14.5859375 18.69335938 C-7.39069574 18.800938 -0.19538454 18.90238357 7 19 C7 16.36 7 13.72 7 11 C5.02 11 3.04 11 1 11 C0.505 5.555 0.505 5.555 0 0 Z " fill="#877E7C" transform="translate(268,295)"/>
<path d="M0 0 C9.57 0 19.14 0 29 0 C29 0.33 29 0.66 29 1 C27.02 1 25.04 1 23 1 C23 6.94 23 12.88 23 19 C26.63 18.67 30.26 18.34 34 18 C34.495 18.99 34.495 18.99 35 20 C30.71 20 26.42 20 22 20 C22 13.73 22 7.46 22 1 C19.36 1 16.72 1 14 1 C14 9.58 14 18.16 14 27 C10.37 27 6.74 27 3 27 C3 26.34 3 25.68 3 25 C6.3 25 9.6 25 13 25 C13 17.08 13 9.16 13 1 C11.68 1 10.36 1 9 1 C9 7.6 9 14.2 9 21 C8.67 21 8.34 21 8 21 C8 14.4 8 7.8 8 1 C6.68 1 5.36 1 4 1 C4 8.59 4 16.18 4 24 C-5.72607234 24.12311484 -15.29740018 23.62597418 -25 23 C-25 16.73 -25 10.46 -25 4 C-24.34 4 -23.68 4 -23 4 C-23 9.61 -23 15.22 -23 21 C-17.81044169 20.92176358 -17.81044169 20.92176358 -12.62133789 20.81982422 C-6.88002472 20.77688039 -2.87350636 21.69477637 3 23 C3 15.74 3 8.48 3 1 C2.01 0.67 1.02 0.34 0 0 Z " fill="#805B4A" transform="translate(268,335)"/>
<path d="M0 0 C0.66 1.32 1.32 2.64 2 4 C-1.66291938 6.47785723 -4.6109185 7.48964169 -9 8 C-8.34 9.65 -7.68 11.3 -7 13 C-7.99 13 -8.98 13 -10 13 C-10 12.34 -10 11.68 -10 11 C-10.99 11 -11.98 11 -13 11 C-13 11.66 -13 12.32 -13 13 C-15.31 13.33 -17.62 13.66 -20 14 C-20.33 15.32 -20.66 16.64 -21 18 C-16.05 18 -11.1 18 -6 18 C-6 18.99 -6 19.98 -6 21 C-9.96 21 -13.92 21 -18 21 C-18 23.97 -18 26.94 -18 30 C-20.31 30 -22.62 30 -25 30 C-25 23.4 -25 16.8 -25 10 C-21.7825 9.38125 -21.7825 9.38125 -18.5 8.75 C-11.30048076 7.20672591 -5.17334808 5.50156654 0 0 Z " fill="#140702" transform="translate(314,284)"/>
<path d="M0 0 C0.99 0 1.98 0 3 0 C3 5.94 3 11.88 3 18 C12.57 17.67 22.14 17.34 32 17 C32 16.01 32 15.02 32 14 C31.01 14 30.02 14 29 14 C29 13.34 29 12.68 29 12 C22.4 12.33 15.8 12.66 9 13 C9.33 12.01 9.66 11.02 10 10 C18.25 10 26.5 10 35 10 C34.67 15.28 34.34 20.56 34 26 C32.35 26.33 30.7 26.66 29 27 C29 26.34 29 25.68 29 25 C23.72 25 18.44 25 13 25 C13 29.95 13 34.9 13 40 C12.01 40 11.02 40 10 40 C10.33 34.72 10.66 29.44 11 24 C17.93 24 24.86 24 32 24 C32 22.68 32 21.36 32 20 C21.77 19.67 11.54 19.34 1 19 C0.67 12.73 0.34 6.46 0 0 Z " fill="#EAEEF4" transform="translate(166,305)"/>
<path d="M0 0 C2.97 0 5.94 0 9 0 C9 7.92 9 15.84 9 24 C5.37 24.33 1.74 24.66 -2 25 C-2 24.34 -2 23.68 -2 23 C-1.34 23 -0.68 23 0 23 C0 15.41 0 7.82 0 0 Z " fill="#110101" transform="translate(272,336)"/>
<path d="M0 0 C7.59 0 15.18 0 23 0 C22.67 0.99 22.34 1.98 22 3 C20.02 3 18.04 3 16 3 C16 4.32 16 5.64 16 7 C17.65 7 19.3 7 21 7 C21 7.33 21 7.66 21 8 C19.02 8 17.04 8 15 8 C15 9.65 15 11.3 15 13 C17.31 13 19.62 13 22 13 C22 13.33 22 13.66 22 14 C19.36 14 16.72 14 14 14 C14 9.71 14 5.42 14 1 C12.02 1.33 10.04 1.66 8 2 C8.515625 2.350625 9.03125 2.70125 9.5625 3.0625 C11 5 11 5 10.8125 8.5625 C10 12 10 12 8 14 C5.69 14 3.38 14 1 14 C0.67 9.38 0.34 4.76 0 0 Z " fill="#AAABAC" transform="translate(228,316)"/>
<path d="M0 0 C2.64 0 5.28 0 8 0 C8 6.27 8 12.54 8 19 C11.96 19 15.92 19 20 19 C19.67 19.66 19.34 20.32 19 21 C18.01 21 17.02 21 16 21 C15.67 21.66 15.34 22.32 15 23 C14.67 22.34 14.34 21.68 14 21 C10.63471927 20.46582846 7.40372484 20 4 20 C2.68 20 1.36 20 0 20 C0 13.4 0 6.8 0 0 Z " fill="#0C0200" transform="translate(282,336)"/>
<path d="M0 0 C1.65 0 3.3 0 5 0 C4.67 3.96 4.34 7.92 4 12 C8.29 12 12.58 12 17 12 C17 13.32 17 14.64 17 16 C11.28164891 18.47280047 6.12570869 18.14940753 0 18 C0 12.06 0 6.12 0 0 Z " fill="#30160D" transform="translate(291,336)"/>
<path d="M0 0 C4.52440778 3.05703228 6.32851476 5.80959847 8 11 C8 13.31 8 15.62 8 18 C0.41 18 -7.18 18 -15 18 C-15.66 16.35 -16.32 14.7 -17 13 C-19.29771396 10.65653509 -20.51488767 10.05081484 -23.796875 9.70703125 C-25.25867188 9.75923828 -25.25867188 9.75923828 -26.75 9.8125 C-27.73484375 9.83957031 -28.7196875 9.86664063 -29.734375 9.89453125 C-30.48203125 9.92933594 -31.2296875 9.96414062 -32 10 C-32.66 13.3 -33.32 16.6 -34 20 C-34.33 20 -34.66 20 -35 20 C-35.10824843 18.3973218 -35.18570645 16.79254252 -35.25 15.1875 C-35.29640625 14.29417969 -35.3428125 13.40085938 -35.390625 12.48046875 C-35 10 -35 10 -33.296875 8.1953125 C-30.64279287 6.81410649 -28.97706469 6.62850329 -26 6.6875 C-25.154375 6.69136719 -24.30875 6.69523438 -23.4375 6.69921875 C-20.88462271 7.01423726 -19.20986065 7.71603004 -17 9 C-17 9.66 -17 10.32 -17 11 C-16.34 11 -15.68 11 -15 11 C-14.67 12.32 -14.34 13.64 -14 15 C-13.34 15 -12.68 15 -12 15 C-12 15.66 -12 16.32 -12 17 C-5.73 16.67 0.54 16.34 7 16 C7 14.68 7 13.36 7 12 C6.01 12 5.02 12 4 12 C3.8453125 10.3603125 3.8453125 10.3603125 3.6875 8.6875 C3.00272798 5.01463192 2.72080696 4.24762314 0 2 C0 1.34 0 0.68 0 0 Z " fill="#C85A14" transform="translate(312,212)"/>
<path d="M0 0 C1.98 0 3.96 0 6 0 C6.02714735 2.22909871 6.04646254 4.45829367 6.0625 6.6875 C6.07410156 7.92886719 6.08570313 9.17023438 6.09765625 10.44921875 C6.01478673 13.46235454 5.70839449 16.08275339 5 19 C5.99 19.33 6.98 19.66 8 20 C7 21 7 21 5.15234375 21.09765625 C3.1015625 21.06510417 1.05078125 21.03255208 -1 21 C-1.33 20.34 -1.66 19.68 -2 19 C-1.01 19 -0.02 19 1 19 C0.83628906 18.32582031 0.67257813 17.65164063 0.50390625 16.95703125 C-0.0875358 13.48632094 -0.09539046 10.20677876 -0.0625 6.6875 C-0.05347656 5.43324219 -0.04445312 4.17898438 -0.03515625 2.88671875 C-0.01775391 1.45779297 -0.01775391 1.45779297 0 0 Z " fill="#0F1014" transform="translate(237,293)"/>
<path d="M0 0 C4.29 0.33 8.58 0.66 13 1 C13.1953125 4.09244792 13.390625 7.18489583 13.5859375 10.27734375 C13.72257812 11.17582031 13.85921875 12.07429688 14 13 C14.66 13.33 15.32 13.66 16 14 C13.6203388 15.1898306 12.08514265 15.13349966 9.4375 15.125 C8.22900391 15.12886719 8.22900391 15.12886719 6.99609375 15.1328125 C5 15 5 15 4 14 C3.95919217 12.00041636 3.95745644 9.99954746 4 8 C4.66 8 5.32 8 6 8 C6 7.34 6 6.68 6 6 C-0.6 6.33 -7.2 6.66 -14 7 C-14 6.34 -14 5.68 -14 5 C-10.541824 4.9131671 -7.08392656 4.85966718 -3.625 4.8125 C-2.14773437 4.77479492 -2.14773437 4.77479492 -0.640625 4.73632812 C0.77089844 4.72182617 0.77089844 4.72182617 2.2109375 4.70703125 C3.08024902 4.6913208 3.94956055 4.67561035 4.84521484 4.65942383 C5.55629395 4.77181396 6.26737305 4.8842041 7 5 C7.99 6.485 7.99 6.485 9 8 C9.99 8 10.98 8 12 8 C12 6.02 12 4.04 12 2 C6.06 2.495 6.06 2.495 0 3 C0 2.01 0 1.02 0 0 Z " fill="#1C2228" transform="translate(198,299)"/>
<path d="M0 0 C4.15301973 1.52275884 8.2958525 3.071604 12.4375 4.625 C13.60216797 5.05167969 14.76683594 5.47835937 15.96679688 5.91796875 C24.748413 9.23271963 33.70045059 12.82986133 39 21 C40.19028338 24.57085014 40.18398398 27.8460683 40.1875 31.5625 C40.19974609 32.24763672 40.21199219 32.93277344 40.22460938 33.63867188 C40.22987533 35.42734112 40.12200021 37.21548848 40 39 C39.34 39.66 38.68 40.32 38 41 C37.67 34.73 37.34 28.46 37 22 C36.01 21.67 35.02 21.34 34 21 C33.9175 20.401875 33.835 19.80375 33.75 19.1875 C32.66759944 16.03049837 30.62063975 15.30077944 27.7890625 13.734375 C25.85977228 12.81013317 25.85977228 12.81013317 23 13 C23 12.01 23 11.02 23 10 C22.40574219 9.90203125 21.81148438 9.8040625 21.19921875 9.703125 C14.49459034 8.49358084 8.33687847 6.48174328 2 4 C2 3.34 2 2.68 2 2 C1.34 2 0.68 2 0 2 C0 1.34 0 0.68 0 0 Z " fill="#DF681D" transform="translate(281,235)"/>
<path d="M0 0 C3.85305181 2.41263629 3.85305181 2.41263629 4.50170898 5.00537109 C4.49985596 5.75383301 4.49800293 6.50229492 4.49609375 7.2734375 C4.49673828 8.0984375 4.49738281 8.9234375 4.49804688 9.7734375 C4.47806641 10.63195312 4.45808594 11.49046875 4.4375 12.375 C4.44458984 13.22578125 4.45167969 14.0765625 4.45898438 14.953125 C4.41038337 19.75340872 4.14010536 23.11681627 1 27 C0.67 27 0.34 27 0 27 C-1.29227031 21.31401066 -0.90242274 15.89196518 -0.5625 10.125 C-0.51029297 9.15046875 -0.45808594 8.1759375 -0.40429688 7.171875 C-0.27536992 4.78086598 -0.14044056 2.39035574 0 0 Z " fill="#030507" transform="translate(225,285)"/>
<path d="M0 0 C1.98 0.66 3.96 1.32 6 2 C6 6.62 6 11.24 6 16 C2 17 2 17 0 16 C0 10.72 0 5.44 0 0 Z " fill="#101214" transform="translate(230,291)"/>
<path d="M0 0 C2.31 0 4.62 0 7 0 C6.01 1.485 6.01 1.485 5 3 C4.52074961 7.3132535 4.52739937 9.30586782 7 12.9375 C7.66 13.618125 8.32 14.29875 9 15 C8.67 15.33 8.34 15.66 8 16 C5.36 16 2.72 16 0 16 C0 10.72 0 5.44 0 0 Z " fill="#020405" transform="translate(200,317)"/>
<path d="M0 0 C2.97 0 5.94 0 9 0 C9.18451025 11.52164009 9.18451025 11.52164009 8 17 C8.66 17.33 9.32 17.66 10 18 C8.35 18 6.7 18 5 18 C4.95101562 17.00097656 4.90203125 16.00195312 4.8515625 14.97265625 C4.77679688 13.68230469 4.70203125 12.39195312 4.625 11.0625 C4.52058594 9.13083984 4.52058594 9.13083984 4.4140625 7.16015625 C4.27742187 6.11730469 4.14078125 5.07445312 4 4 C3.34 3.67 2.68 3.34 2 3 C2 2.34 2 1.68 2 1 C1.34 0.67 0.68 0.34 0 0 Z " fill="#040509" transform="translate(207,296)"/>
<path d="M0 0 C1.65 0 3.3 0 5 0 C4.67 6.6 4.34 13.2 4 20 C2.68 20 1.36 20 0 20 C0 13.4 0 6.8 0 0 Z " fill="#2C130D" transform="translate(282,336)"/>
<path d="M0 0 C0.99 0.33 1.98 0.66 3 1 C3.08096803 2.45742463 3.13917774 3.91612807 3.1875 5.375 C3.22230469 6.18710937 3.25710938 6.99921875 3.29296875 7.8359375 C3.19628906 8.55007813 3.09960938 9.26421875 3 10 C-0.4352048 12.29013653 -1.985331 12.17842973 -6 12 C-6 11.34 -6 10.68 -6 10 C-6.99 10 -7.98 10 -9 10 C-8.6875 8.125 -8.6875 8.125 -8 6 C-7.01 5.34 -6.02 4.68 -5 4 C-4.67 5.32 -4.34 6.64 -4 8 C-3.01 7.34 -2.02 6.68 -1 6 C-0.83328148 3.4582293 -0.83328148 3.4582293 -1 1 C-0.67 0.67 -0.34 0.34 0 0 Z " fill="#0D0204" transform="translate(294,264)"/>
<path d="M0 0 C0.66 0 1.32 0 2 0 C2 8.25 2 16.5 2 25 C7.28 24.67 12.56 24.34 18 24 C18 24.99 18 25.98 18 27 C12.06 26.67 6.12 26.34 0 26 C0 17.42 0 8.84 0 0 Z " fill="#81858A" transform="translate(237,339)"/>
<path d="M0 0 C2.625 -0.1875 2.625 -0.1875 5 0 C4.34 0.66 3.68 1.32 3 2 C2.83312552 4.58354218 2.83312552 4.58354218 3 7 C4.65 7.33 6.3 7.66 8 8 C8 8.99 8 9.98 8 11 C5.83125748 10.49396008 4.00032373 10.00016187 2 9 C2 9.99 2 10.98 2 12 C2.66 12.33 3.32 12.66 4 13 C1.6875 12.8125 1.6875 12.8125 -1 12 C-2.9375 9.6875 -2.9375 9.6875 -4 7 C-3.3125 4.875 -3.3125 4.875 -2 3 C-1.34 2.01 -0.68 1.02 0 0 Z " fill="#250601" transform="translate(276,317)"/>
<path d="M0 0 C0.99 0 1.98 0 3 0 C3.33 0.99 3.66 1.98 4 3 C4.66 2.01 5.32 1.02 6 0 C6.99 0 7.98 0 9 0 C8.608125 0.86625 8.21625 1.7325 7.8125 2.625 C6.63954497 6.05470991 6.63954497 6.05470991 8.375 9.375 C8.91125 10.24125 9.4475 11.1075 10 12 C6.73045798 11.43628586 5.17424117 10.50037734 3 8 C3 9.32 3 10.64 3 12 C2.01 12 1.02 12 0 12 C0 8.04 0 4.08 0 0 Z " fill="#C95E1D" transform="translate(266,318)"/>
<path d="M0 0 C0.66 0 1.32 0 2 0 C2 5.61 2 11.22 2 17 C7.61 17 13.22 17 19 17 C18.67 17.99 18.34 18.98 18 20 C12.06 19.67 6.12 19.34 0 19 C0 12.73 0 6.46 0 0 Z " fill="#585A5C" transform="translate(243,339)"/>
<path d="M0 0 C1.32 0 2.64 0 4 0 C4 4.62 4 9.24 4 14 C2.35 13.67 0.7 13.34 -1 13 C-1 12.34 -1 11.68 -1 11 C-3.97 11 -6.94 11 -10 11 C-10 10.34 -10 9.68 -10 9 C-7.36 9.33 -4.72 9.66 -2 10 C-2 9.01 -2 8.02 -2 7 C-1.01 7 -0.02 7 1 7 C0.67 4.69 0.34 2.38 0 0 Z " fill="#120101" transform="translate(267,336)"/>
<path d="M0 0 C2.44373638 1.43837029 3.99468139 2.94326296 6 5 C5.67 6.32 5.34 7.64 5 9 C3.5 7.625 3.5 7.625 2 6 C2 5.34 2 4.68 2 4 C1.01 4 0.02 4 -1 4 C-1.33 4.66 -1.66 5.32 -2 6 C-2 4.35 -2 2.7 -2 1 C-4.64 1.99 -7.28 2.98 -10 4 C-10 5.093125 -10 6.18625 -10 7.3125 C-10 9.54166667 -10 11.77083333 -10 14 C-11.5 12.9375 -11.5 12.9375 -13 11 C-13.48686939 7.17459766 -13.53974912 4.91522677 -11.5625 1.5625 C-7.75170425 -0.76115594 -4.34406996 -0.90782809 0 0 Z " fill="#270400" transform="translate(291,221)"/>
<path d="M0 0 C1.134375 0.020625 2.26875 0.04125 3.4375 0.0625 C3.7675 1.0525 4.0975 2.0425 4.4375 3.0625 C1.4675 2.5675 1.4675 2.5675 -1.5625 2.0625 C0.37004772 4.0870738 2.06908688 5.48355792 4.4375 7.0625 C3.5625 10.9375 3.5625 10.9375 2.4375 12.0625 C0.09805264 11.77519945 -2.2364143 11.44313221 -4.5625 11.0625 C-4.5625 10.0725 -4.5625 9.0825 -4.5625 8.0625 C-2.5825 8.7225 -0.6025 9.3825 1.4375 10.0625 C1.4375 9.0725 1.4375 8.0825 1.4375 7.0625 C-0.2125 6.7325 -1.8625 6.4025 -3.5625 6.0625 C-3.94468767 4.40635343 -4.27645102 2.73792976 -4.5625 1.0625 C-3.5625 0.0625 -3.5625 0.0625 0 0 Z " fill="#C76122" transform="translate(282.5625,317.9375)"/>
<path d="M0 0 C3.3 0 6.6 0 10 0 C10 1.65 10 3.3 10 5 C3.73 4.67 -2.54 4.34 -9 4 C-9 3.34 -9 2.68 -9 2 C-6.03 2 -3.06 2 0 2 C0 1.34 0 0.68 0 0 Z " fill="#4C2A1A" transform="translate(262,309)"/>
<path d="M0 0 C2 0 2 0 3.625 1.3125 C5 3 5 3 5 6 C7.64 6.33 10.28 6.66 13 7 C13 7.66 13 8.32 13 9 C16.63 9 20.26 9 24 9 C24 9.99 24 10.98 24 12 C27.63 12 31.26 12 35 12 C35 12.33 35 12.66 35 13 C23.97320621 13.52787843 12.36657061 12.43951729 3 6 C0.5 3.25 0.5 3.25 -1 1 C-0.67 0.67 -0.34 0.34 0 0 Z " fill="#DA5C12" transform="translate(261,281)"/>
<path d="M0 0 C0.33 3.96 0.66 7.92 1 12 C0.01 12 -0.98 12 -2 12 C-2.99 9.03 -3.98 6.06 -5 3 C-6.65 3 -8.3 3 -10 3 C-10.33 2.34 -10.66 1.68 -11 1 C-7.32589215 -0.17571451 -3.83070817 -0.07366746 0 0 Z " fill="#130501" transform="translate(310,328)"/>
<path d="M0 0 C0.99 0 1.98 0 3 0 C2.67 12.54 2.34 25.08 2 38 C-2.95 38.33 -7.9 38.66 -13 39 C-13 38.34 -13 37.68 -13 37 C-8.38 37 -3.76 37 1 37 C0.67 24.79 0.34 12.58 0 0 Z " fill="#D5D9DD" transform="translate(223,336)"/>
<path d="M0 0 C0.845625 0.00386719 1.69125 0.00773438 2.5625 0.01171875 C5.11537729 0.32673726 6.79013935 1.02853004 9 2.3125 C9 2.9725 9 3.6325 9 4.3125 C9.66 4.3125 10.32 4.3125 11 4.3125 C11.33 5.6325 11.66 6.9525 12 8.3125 C12.66 8.3125 13.32 8.3125 14 8.3125 C14 8.9725 14 9.6325 14 10.3125 C13.01 10.3125 12.02 10.3125 11 10.3125 C9.96210419 8.66916496 8.96432076 7.00006133 8 5.3125 C4.57905758 3.03187172 3.31812778 3.09324993 -0.6875 3.1875 C-1.68136719 3.20554688 -2.67523438 3.22359375 -3.69921875 3.2421875 C-4.45847656 3.26539063 -5.21773438 3.28859375 -6 3.3125 C-6.66 6.6125 -7.32 9.9125 -8 13.3125 C-8.33 13.3125 -8.66 13.3125 -9 13.3125 C-9.10824843 11.7098218 -9.18570645 10.10504252 -9.25 8.5 C-9.29640625 7.60667969 -9.3428125 6.71335938 -9.390625 5.79296875 C-9 3.3125 -9 3.3125 -7.296875 1.5078125 C-4.64279287 0.12660649 -2.97706469 -0.05899671 0 0 Z " fill="#D8651E" transform="translate(286,218.6875)"/>
<path d="M0 0 C0.99 0 1.98 0 3 0 C3 6.6 3 13.2 3 20 C2.01 20 1.02 20 0 20 C0 13.4 0 6.8 0 0 Z " fill="#140000" transform="translate(286,294)"/>
<path d="M0 0 C4.62 0 9.24 0 14 0 C14 0.99 14 1.98 14 3 C10.04 3 6.08 3 2 3 C2 5.97 2 8.94 2 12 C1.34 12 0.68 12 0 12 C0 8.04 0 4.08 0 0 Z " fill="#45200E" transform="translate(294,302)"/>
<path d="M0 0 C0.99 0 1.98 0 3 0 C3 0.99 3 1.98 3 3 C2.34 3 1.68 3 1 3 C1 13.56 1 24.12 1 35 C-5.435 35.495 -5.435 35.495 -12 36 C-12 35.01 -12 34.02 -12 33 C-8.04 33.33 -4.08 33.66 0 34 C0 22.78 0 11.56 0 0 Z " fill="#EDF0F4" transform="translate(210,336)"/>
<path d="M0 0 C11.22 0 22.44 0 34 0 C34 0.33 34 0.66 34 1 C27.4 1 20.8 1 14 1 C14 1.99 14 2.98 14 4 C12.68 4 11.36 4 10 4 C10 3.01 10 2.02 10 1 C9.01 1 8.02 1 7 1 C7 1.99 7 2.98 7 4 C6.01 4 5.02 4 4 4 C4 3.01 4 2.02 4 1 C3.01 1 2.02 1 1 1 C0.67 1.99 0.34 2.98 0 4 C0 2.68 0 1.36 0 0 Z " fill="#9FA3A7" transform="translate(232,335)"/>
<path d="M0 0 C0.33 0.66 0.66 1.32 1 2 C1.66 1.67 2.32 1.34 3 1 C4.70702735 0.93003986 6.41668003 0.91559846 8.125 0.9375 C9.03507813 0.94652344 9.94515625 0.95554687 10.8828125 0.96484375 C11.58148438 0.97644531 12.28015625 0.98804688 13 1 C13 2.98 13 4.96 13 7 C11.68 7.33 10.36 7.66 9 8 C8.67 6.68 8.34 5.36 8 4 C4.37 4 0.74 4 -3 4 C-2.01 2.68 -1.02 1.36 0 0 Z " fill="#06070A" transform="translate(197,300)"/>
<path d="M0 0 C0.66 0 1.32 0 2 0 C2 4.95 2 9.9 2 15 C4.97 15 7.94 15 11 15 C11 18.96 11 22.92 11 27 C11.66 27 12.32 27 13 27 C13 28.65 13 30.3 13 32 C11.68 32 10.36 32 9 32 C9.33 26.72 9.66 21.44 10 16 C7.03 16 4.06 16 1 16 C0.67 10.72 0.34 5.44 0 0 Z " fill="#CDCFD1" transform="translate(206,280)"/>
<path d="M0 0 C6.93 0 13.86 0 21 0 C21 0.99 21 1.98 21 3 C20.01 3 19.02 3 18 3 C18 2.34 18 1.68 18 1 C12.72 1 7.44 1 2 1 C2 5.95 2 10.9 2 16 C1.01 16 0.02 16 -1 16 C-0.67 10.72 -0.34 5.44 0 0 Z " fill="#A0A3A8" transform="translate(177,329)"/>
<path d="M0 0 C3.53571429 0.53571429 3.53571429 0.53571429 5 2 C4.71269945 4.33944736 4.38063221 6.6739143 4 9 C2.68 9.33 1.36 9.66 0 10 C-2.14915785 6.77626323 -2.38286803 5.73296326 -2 2 C-1.34 1.34 -0.68 0.68 0 0 Z " fill="#171716" transform="translate(220,319)"/>
<path d="M0 0 C4.875 0.875 4.875 0.875 6 2 C6.25 4.9375 6.25 4.9375 6 8 C3 10 3 10 0 10 C0 6.7 0 3.4 0 0 Z " fill="#202120" transform="translate(231,319)"/>
<path d="M0 0 C0.94875 0.04125 1.8975 0.0825 2.875 0.125 C3.535 1.445 4.195 2.765 4.875 4.125 C4.215 4.125 3.555 4.125 2.875 4.125 C2.545 3.465 2.215 2.805 1.875 2.125 C-0.14963255 1.47286708 -0.14963255 1.47286708 -2.125 1.125 C-2.125 3.765 -2.125 6.405 -2.125 9.125 C-0.475 9.455 1.175 9.785 2.875 10.125 C2.875 9.465 2.875 8.805 2.875 8.125 C3.535 8.125 4.195 8.125 4.875 8.125 C4.215 9.445 3.555 10.765 2.875 12.125 C0 12.3125 0 12.3125 -3.125 12.125 C-5.57397847 8.45153229 -5.44037716 6.46143601 -5.125 2.125 C-3.125 0.125 -3.125 0.125 0 0 Z " fill="#C6C5C4" transform="translate(209.125,317.875)"/>
<path d="M0 0 C0.66 0 1.32 0 2 0 C2 4.62 2 9.24 2 14 C4.97 14 7.94 14 11 14 C10.67 14.66 10.34 15.32 10 16 C8.52093108 16.02689216 7.04172517 16.04634621 5.5625 16.0625 C4.32693359 16.07990234 4.32693359 16.07990234 3.06640625 16.09765625 C1 16 1 16 0 15 C-0.07313567 12.46950598 -0.09247527 9.96695163 -0.0625 7.4375 C-0.05798828 6.72658203 -0.05347656 6.01566406 -0.04882812 5.28320312 C-0.03700864 3.52209987 -0.01907263 1.76103964 0 0 Z " fill="#0D0000" transform="translate(292,336)"/>
<path d="M0 0 C-0.99 1.485 -0.99 1.485 -2 3 C-4.3828125 3.29296875 -4.3828125 3.29296875 -7.125 3.1875 C-8.73375 3.125625 -10.3425 3.06375 -12 3 C-12 8.94 -12 14.88 -12 21 C-12.33 21 -12.66 21 -13 21 C-13 14.4 -13 7.8 -13 1 C-11.22625 0.649375 -9.4525 0.29875 -7.625 -0.0625 C-6.12839844 -0.35833984 -6.12839844 -0.35833984 -4.6015625 -0.66015625 C-2 -1 -2 -1 0 0 Z " fill="#512914" transform="translate(302,293)"/>
<path d="M0 0 C-1.32 0.33 -2.64 0.66 -4 1 C-4 1.66 -4 2.32 -4 3 C0.455 3.99 0.455 3.99 5 5 C5 5.66 5 6.32 5 7 C-1.46712188 5.83805848 -7.09622349 3.8751252 -13 1 C-13 0.67 -13 0.34 -13 0 C-4.57142857 -1.28571429 -4.57142857 -1.28571429 0 0 Z " fill="#250701" transform="translate(295,235)"/>
<path d="M0 0 C0.33 0 0.66 0 1 0 C1 7.92 1 15.84 1 24 C1.99 24 2.98 24 4 24 C4 24.99 4 25.98 4 27 C2.35 26.67 0.7 26.34 -1 26 C-1 22.66666667 -1 19.33333333 -1 16 C-1.01160156 14.83210938 -1.02320313 13.66421875 -1.03515625 12.4609375 C-1.04443042 11.09895941 -1.0535396 9.73698019 -1.0625 8.375 C-1.07506836 7.33472656 -1.07506836 7.33472656 -1.08789062 6.2734375 C-1.09647478 4.51540183 -1.05242467 2.75727481 -1 1 C-0.67 0.67 -0.34 0.34 0 0 Z " fill="#EAE8EB" transform="translate(258,266)"/>
<path d="M0 0 C0.66 0.33 1.32 0.66 2 1 C-0.64 4.3 -3.28 7.6 -6 11 C-6.99 10.67 -7.98 10.34 -9 10 C-9 8.35 -9 6.7 -9 5 C-8.01 5 -7.02 5 -6 5 C-6.33 4.34 -6.66 3.68 -7 3 C-6.01 2.67 -5.02 2.34 -4 2 C-3.34 2.33 -2.68 2.66 -2 3 C-2 2.34 -2 1.68 -2 1 C-1.34 0.67 -0.68 0.34 0 0 Z " fill="#DAE3EC" transform="translate(235,230)"/>
<path d="M0 0 C0.99 0 1.98 0 3 0 C2.85980308 2.81288705 2.71312045 5.62516885 2.5625 8.4375 C2.50352539 9.64116211 2.50352539 9.64116211 2.44335938 10.86914062 C2.11328125 16.88671875 2.11328125 16.88671875 1 18 C-1.34987262 18.23527773 -3.70556039 18.41386417 -6.0625 18.5625 C-7.35285156 18.64628906 -8.64320313 18.73007812 -9.97265625 18.81640625 C-10.97167969 18.87699219 -11.97070312 18.93757813 -13 19 C-13 18.01 -13 17.02 -13 16 C-8.71 16 -4.42 16 0 16 C0 10.72 0 5.44 0 0 Z " fill="#DCE0E3" transform="translate(203,336)"/>
<path d="M0 0 C0.66 0 1.32 0 2 0 C2 6.27 2 12.54 2 19 C1.01 19 0.02 19 -1 19 C-0.67 12.73 -0.34 6.46 0 0 Z " fill="#8B8E92" transform="translate(243,293)"/>
<path d="M0 0 C5.28 1.32 10.56 2.64 16 4 C16 4.33 16 4.66 16 5 C12.7 5 9.4 5 6 5 C6 4.34 6 3.68 6 3 C4.02 3 2.04 3 0 3 C0 2.01 0 1.02 0 0 Z M2 5 C3.32 5 4.64 5 6 5 C6 6.65 6 8.3 6 10 C4.68 10.33 3.36 10.66 2 11 C2 9.02 2 7.04 2 5 Z " fill="#2A0801" transform="translate(268,289)"/>
<path d="M0 0 C1.98 0 3.96 0 6 0 C6 0.66 6 1.32 6 2 C4.35 2.66 2.7 3.32 1 4 C1 7.3 1 10.6 1 14 C-0.32 13.34 -1.64 12.68 -3 12 C-3 11.34 -3 10.68 -3 10 C-2.34 10 -1.68 10 -1 10 C-1.020625 8.72125 -1.04125 7.4425 -1.0625 6.125 C-1.125 2.25 -1.125 2.25 0 0 Z " fill="#180401" transform="translate(268,292)"/>
<path d="M0 0 C0.99 0 1.98 0 3 0 C3 6.27 3 12.54 3 19 C2.34 19 1.68 19 1 19 C0.67 12.73 0.34 6.46 0 0 Z " fill="#8E9296" transform="translate(166,305)"/>
<path d="M0 0 C6.93 0 13.86 0 21 0 C21 2.64 21 5.28 21 8 C20.01 8 19.02 8 18 8 C18 6.35 18 4.7 18 3 C18.66 3 19.32 3 20 3 C20 2.34 20 1.68 20 1 C13.4 1.33 6.8 1.66 0 2 C0 1.34 0 0.68 0 0 Z " fill="#E4E9ED" transform="translate(184,304)"/>
<path d="M0 0 C2.31 0 4.62 0 7 0 C7 4.29 7 8.58 7 13 C6.67 13 6.34 13 6 13 C5.81824219 12.39671875 5.63648438 11.7934375 5.44921875 11.171875 C3.58012094 5.14414802 3.58012094 5.14414802 0 0 Z " fill="#0E0F10" transform="translate(235,317)"/>
<path d="M0 0 C4.29 0.33 8.58 0.66 13 1 C13.33 4.96 13.66 8.92 14 13 C13.01 13 12.02 13 11 13 C11.33 9.37 11.66 5.74 12 2 C6.06 2.495 6.06 2.495 0 3 C0 2.01 0 1.02 0 0 Z " fill="#D6D9DD" transform="translate(198,299)"/>
<path d="M0 0 C0.66 0.33 1.32 0.66 2 1 C1.67 6.28 1.34 11.56 1 17 C1.66 17 2.32 17 3 17 C3 18.65 3 20.3 3 22 C1.68 22 0.36 22 -1 22 C-0.67 14.74 -0.34 7.48 0 0 Z " fill="#BCC0C3" transform="translate(229,290)"/>
<path d="M0 0 C0.66 0 1.32 0 2 0 C2.33 8.58 2.66 17.16 3 26 C2.01 26 1.02 26 0 26 C0 17.42 0 8.84 0 0 Z " fill="#CACFD2" transform="translate(222,286)"/>
<path d="M0 0 C0.66 0 1.32 0 2 0 C2 5.61 2 11.22 2 17 C1.34 17 0.68 17 0 17 C-0.19386492 14.35448944 -0.38038267 11.70882217 -0.5625 9.0625 C-0.61857422 8.30775391 -0.67464844 7.55300781 -0.73242188 6.77539062 C-0.86176157 4.85254042 -0.93516912 2.92610452 -1 1 C-0.67 0.67 -0.34 0.34 0 0 Z " fill="#492217" transform="translate(280,297)"/>
<path d="M0 0 C1.51980469 0.61488281 1.51980469 0.61488281 3.0703125 1.2421875 C4.4218374 1.7865517 5.77340202 2.33081729 7.125 2.875 C8.12273437 3.27912109 8.12273437 3.27912109 9.140625 3.69140625 C13.0557408 5.26512927 16.97956537 6.709954 21 8 C21 8.33 21 8.66 21 9 C13.41045469 8.55355616 6.98360263 5.88499438 0 3 C0 2.01 0 1.02 0 0 Z " fill="#320600" transform="translate(265,249)"/>
<path d="M0 0 C1.38518678 2.77037357 0.56456961 3.97009213 -0.375 6.875 C-1.54105854 10.51131378 -1.54105854 10.51131378 -2.5390625 14.1953125 C-3 16 -3 16 -4 18 C-5 17 -5 17 -5.0625 13.625 C-5.041875 12.42875 -5.02125 11.2325 -5 10 C-5 9.01 -5 8.02 -5 7 C-3.90625 5.17578125 -3.90625 5.17578125 -2.5 3.3125 C-2.0359375 2.68988281 -1.571875 2.06726563 -1.09375 1.42578125 C-0.7328125 0.95527344 -0.371875 0.48476562 0 0 Z " fill="#D9E4ED" transform="translate(208,235)"/>
<path d="M0 0 C7.26 0 14.52 0 22 0 C22 1.32 22 2.64 22 4 C21.01 4 20.02 4 19 4 C19 3.34 19 2.68 19 2 C12.4 2.33 5.8 2.66 -1 3 C-0.67 2.01 -0.34 1.02 0 0 Z " fill="#D0D3D7" transform="translate(176,315)"/>
<path d="M0 0 C0.66 1.32 1.32 2.64 2 4 C1.195625 4.680625 0.39125 5.36125 -0.4375 6.0625 C-3.42288711 9.48477302 -3.73781251 11.5428126 -4 16 C-4.33 16 -4.66 16 -5 16 C-5.76681614 6.26995516 -5.76681614 6.26995516 -3.88671875 3.15625 C-2.5 1.8125 -2.5 1.8125 0 0 Z " fill="#160600" transform="translate(300,332)"/>
<path d="M0 0 C3 1 3 1 4.1875 3.375 C5 6 5 6 5 9 C4.67 8.67 4.34 8.34 4 8 C3.34 8.66 2.68 9.32 2 10 C1.01 10 0.02 10 -1 10 C-1.33 8.68 -1.66 7.36 -2 6 C-1.01 6 -0.02 6 1 6 C0.649375 5.38125 0.29875 4.7625 -0.0625 4.125 C-0.371875 3.42375 -0.68125 2.7225 -1 2 C-0.67 1.34 -0.34 0.68 0 0 Z " fill="#E7F5FD" transform="translate(219,246)"/>
<path d="M0 0 C5.21979128 -0.1799928 9.07262981 0.02905192 14 2 C14 2.66 14 3.32 14 4 C15.65 4.33 17.3 4.66 19 5 C19 5.99 19 6.98 19 8 C18.29875 7.66226563 17.5975 7.32453125 16.875 6.9765625 C11.28326785 4.34784059 6.05182031 2.25603818 0 1 C0 0.67 0 0.34 0 0 Z " fill="#390A01" transform="translate(293,203)"/>
<path d="M0 0 C0.66 1.32 1.32 2.64 2 4 C-2.33664919 7.11696661 -5.80408388 7.55966813 -11 8 C-8.7398051 5.7398051 -6.44382086 4.51190284 -3.65625 3 C-1.82445698 1.9843552 -1.82445698 1.9843552 0 0 Z " fill="#330D03" transform="translate(314,284)"/>
<path d="M0 0 C0.66 0.33 1.32 0.66 2 1 C2 1.99 2 2.98 2 4 C2.99 3.67 3.98 3.34 5 3 C5 3.99 5 4.98 5 6 C2.36 6 -0.28 6 -3 6 C-2.42655063 3.13275314 -2.1385485 2.1385485 0 0 Z " fill="#010110" transform="translate(288,268)"/>
<path d="M0 0 C0 1.65 0 3.3 0 5 C0.99 5.33 1.98 5.66 3 6 C2 7 2 7 -1.4375 7.1875 C-5 7 -5 7 -7 5 C-5.68 5 -4.36 5 -3 5 C-3 3.68 -3 2.36 -3 1 C-1 0 -1 0 0 0 Z " fill="#12171D" transform="translate(222,307)"/>
<path d="M0 0 C2.125 0.9375 2.125 0.9375 4 2 C3.67 3.32 3.34 4.64 3 6 C1.824375 5.9690625 1.824375 5.9690625 0.625 5.9375 C-1.98114961 5.81315937 -1.98114961 5.81315937 -4 7 C-3.39816251 4.97954558 -2.72693904 2.97888961 -2 1 C-1.34 0.67 -0.68 0.34 0 0 Z " fill="#E6F1FC" transform="translate(211,234)"/>
<path d="M0 0 C0 0.33 0 0.66 0 1 C-2.64 1.33 -5.28 1.66 -8 2 C-7.01 2.66 -6.02 3.32 -5 4 C-7.97 4 -10.94 4 -14 4 C-14 3.01 -14 2.02 -14 1 C-9.32798795 -0.20568053 -4.78503708 -0.09382426 0 0 Z " fill="#3C1000" transform="translate(312,323)"/>
<path d="M0 0 C0.66 1.32 1.32 2.64 2 4 C2.66 2.68 3.32 1.36 4 0 C4 1.65 4 3.3 4 5 C4.99 5.33 5.98 5.66 7 6 C6 7 6 7 4.15234375 7.09765625 C2.1015625 7.06510417 0.05078125 7.03255208 -2 7 C-2.33 6.34 -2.66 5.68 -3 5 C-2.01 5 -1.02 5 0 5 C0 3.35 0 1.7 0 0 Z " fill="#282C31" transform="translate(238,307)"/>
<path d="M0 0 C4.34126357 -0.37210831 6.39659968 0.65778979 10 3 C10.9075 3.350625 11.815 3.70125 12.75 4.0625 C15 5 15 5 16 7 C10.3856009 5.43551329 5.13189662 3.83604813 0 1 C0 0.67 0 0.34 0 0 Z " fill="#D46118" transform="translate(266,249)"/>
<path d="M0 0 C0.66 0 1.32 0 2 0 C2 2.97 2 5.94 2 9 C1.401875 8.38125 0.80375 7.7625 0.1875 7.125 C-2.00811144 4.86323046 -2.00811144 4.86323046 -5 3 C-5 2.34 -5 1.68 -5 1 C-3.35 1 -1.7 1 0 1 C0 0.67 0 0.34 0 0 Z " fill="#340901" transform="translate(286,319)"/>
<path d="M0 0 C2.64 0 5.28 0 8 0 C7.34 2.97 6.68 5.94 6 9 C5.34 7.68 4.68 6.36 4 5 C2.6949419 3.31110128 1.36639342 1.6396721 0 0 Z " fill="#202021" transform="translate(211,317)"/>
<path d="M0 0 C0.66 0.99 1.32 1.98 2 3 C1.34 4.32 0.68 5.64 0 7 C0.99 8.32 1.98 9.64 3 11 C2.01 11 1.02 11 0 11 C-0.66 10.34 -1.32 9.68 -2 9 C-2 7.68 -2 6.36 -2 5 C-2.66 4.67 -3.32 4.34 -4 4 C-2.68 3.34 -1.36 2.68 0 2 C0 1.34 0 0.68 0 0 Z " fill="#D6E1E9" transform="translate(224,242)"/>
<path d="M0 0 C5.70629354 0.42797202 9.41078616 2.84345952 14 6 C12.02 6.99 12.02 6.99 10 8 C9.67 6.68 9.34 5.36 9 4 C8.443125 3.87625 7.88625 3.7525 7.3125 3.625 C4.77885636 2.94023145 2.42078968 2.00866237 0 1 C0 0.67 0 0.34 0 0 Z " fill="#DF651E" transform="translate(298,205)"/>
<path d="M0 0 C0.99 0 1.98 0 3 0 C4.23887548 2.47775095 4.16741669 4.23653707 4.1875 7 C4.20167969 7.886875 4.21585937 8.77375 4.23046875 9.6875 C4 12 4 12 2 14 C-0.125 13.625 -0.125 13.625 -2 13 C-1.34 12.46375 -0.68 11.9275 0 11.375 C2.26833699 9.12031331 2.26833699 9.12031331 2.375 5.9375 C2.19767963 2.81457626 2.19767963 2.81457626 0 0 Z " fill="#D46019" transform="translate(296,262)"/>
<path d="M0 0 C1.32 0 2.64 0 4 0 C4 4.62 4 9.24 4 14 C3.67 14 3.34 14 3 14 C2.67 11.03 2.34 8.06 2 5 C1.34 5 0.68 5 0 5 C0 3.35 0 1.7 0 0 Z " fill="#30110D" transform="translate(267,336)"/>
<path d="M0 0 C1.8871875 0.061875 1.8871875 0.061875 3.8125 0.125 C3.8125 0.455 3.8125 0.785 3.8125 1.125 C1.1725 1.455 -1.4675 1.785 -4.1875 2.125 C-4.8475 5.425 -5.5075 8.725 -6.1875 12.125 C-6.5175 12.125 -6.8475 12.125 -7.1875 12.125 C-7.26840971 10.50081255 -7.32664995 8.87548255 -7.375 7.25 C-7.40980469 6.34507812 -7.44460938 5.44015625 -7.48046875 4.5078125 C-7.38378906 3.72148437 -7.28710938 2.93515625 -7.1875 2.125 C-4.09861478 0.06574319 -3.47814073 -0.1140374 0 0 Z " fill="#CB611B" transform="translate(284.1875,219.875)"/>
<path d="M0 0 C1.17960932 2.35921863 1.6730244 4.38419521 2 7 C1.34 7.66 0.68 8.32 0 9 C-0.99 8.34 -1.98 7.68 -3 7 C-3.33 7.66 -3.66 8.32 -4 9 C-4 5.00095031 -2.27413033 3.19799578 0 0 Z " fill="#D6E0E8" transform="translate(214,227)"/>
<path d="M0 0 C1.42944945 2.35438733 2.08661261 3.48032433 1.625 6.25 C1.41875 6.8275 1.2125 7.405 1 8 C0.01 8 -0.98 8 -2 8 C-2.6875 6.25 -2.6875 6.25 -3 4 C-1.5625 1.75 -1.5625 1.75 0 0 Z M-1 4 C0 6 0 6 0 6 Z M3 4 C3.33 4.66 3.66 5.32 4 6 C3.34 5.67 2.68 5.34 2 5 C2.33 4.67 2.66 4.34 3 4 Z " fill="#DBE5EF" transform="translate(218,222)"/>
<path d="M0 0 C4.17882671 2.56428003 7.12505529 5.01930733 10 9 C9.67 9.66 9.34 10.32 9 11 C7.0625 10.25 7.0625 10.25 5 9 C4.65657551 7.66923011 4.32380126 6.33568021 4 5 C2.69084721 3.96854629 1.35917857 2.96457834 0 2 C0 1.34 0 0.68 0 0 Z " fill="#D2611B" transform="translate(310,247)"/>
<path d="M0 0 C0 0.99 0 1.98 0 3 C-5.61 2.67 -11.22 2.34 -17 2 C-17 1.67 -17 1.34 -17 1 C-14.72926348 0.83201949 -12.45840707 0.66565887 -10.1875 0.5 C-8.29064453 0.36078125 -8.29064453 0.36078125 -6.35546875 0.21875 C-4.24021483 0.08085219 -2.11974408 0 0 0 Z " fill="#B5B6B9" transform="translate(255,363)"/>
<path d="M0 0 C0.33 1.32 0.66 2.64 1 4 C0.01 4.33 -0.98 4.66 -2 5 C-3.66710346 6.49985609 -3.66710346 6.49985609 -5 8 C-5.33 7.34 -5.66 6.68 -6 6 C-5.34 6 -4.68 6 -4 6 C-4 4.35 -4 2.7 -4 1 C-2 0 -2 0 0 0 Z " fill="#1D0A05" transform="translate(276,353)"/>
<path d="M0 0 C4.875 4.75 4.875 4.75 6 7 C4.35 7 2.7 7 1 7 C0 2.25 0 2.25 0 0 Z " fill="#D2DEE5" transform="translate(235,264)"/>
<path d="M0 0 C2.9719385 1.12451727 5.33440687 2.22293791 8 4 C7.67 5.65 7.34 7.3 7 9 C4.04070881 6.24479785 1.96318174 3.53372712 0 0 Z " fill="#D1D9E2" transform="translate(204,256)"/>
<path d="M0 0 C0.99 0 1.98 0 3 0 C2.67 1.32 2.34 2.64 2 4 C-1.3 4 -4.6 4 -8 4 C-8 3.34 -8 2.68 -8 2 C-5.36 2.33 -2.72 2.66 0 3 C0 2.01 0 1.02 0 0 Z " fill="#4F3727" transform="translate(265,343)"/>
<path d="M0 0 C0.99 0 1.98 0 3 0 C3.6875 1.8125 3.6875 1.8125 4 4 C2.5625 5.75 2.5625 5.75 1 7 C-0.0625 5.1875 -0.0625 5.1875 -1 3 C-0.67 2.01 -0.34 1.02 0 0 Z " fill="#0C0F14" transform="translate(220,336)"/>
<path d="M0 0 C1.32 0 2.64 0 4 0 C4 1.65 4 3.3 4 5 C2.35 5 0.7 5 -1 5 C-0.67 3.35 -0.34 1.7 0 0 Z " fill="#2E2017" transform="translate(246,336)"/>
<path d="M0 0 C1.32 0 2.64 0 4 0 C4 2.64 4 5.28 4 8 C3.01 8.495 3.01 8.495 2 9 C1.855625 7.88625 1.71125 6.7725 1.5625 5.625 C1.21627965 2.17857953 1.21627965 2.17857953 0 0 Z " fill="#010203" transform="translate(225,317)"/>
<path d="M0 0 C2 0 2 0 3.625 1.3125 C5 3 5 3 5 6 C5.66 6 6.32 6 7 6 C6.67 6.66 6.34 7.32 6 8 C3.69 6.02 1.38 4.04 -1 2 C-0.67 1.34 -0.34 0.68 0 0 Z " fill="#BE5513" transform="translate(261,281)"/>
<path d="M0 0 C4.62 0 9.24 0 14 0 C14 0.66 14 1.32 14 2 C9.38 2.33 4.76 2.66 0 3 C0 2.01 0 1.02 0 0 Z " fill="#969799" transform="translate(190,352)"/>
<path d="M0 0 C1.32 0 2.64 0 4 0 C4 1.65 4 3.3 4 5 C2.68 5 1.36 5 0 5 C0 3.35 0 1.7 0 0 Z " fill="#BDC3CA" transform="translate(215,307)"/>
<path d="M0 0 C2.64 0.33 5.28 0.66 8 1 C8 1.66 8 2.32 8 3 C9.32 3.33 10.64 3.66 12 4 C10.56138706 3.91253716 9.12402492 3.80434652 7.6875 3.6875 C6.88699219 3.62949219 6.08648437 3.57148438 5.26171875 3.51171875 C2.63727666 2.91793306 1.69179328 2.04219706 0 0 Z " fill="#511700" transform="translate(280,273)"/>
<path d="M0 0 C4.29 0.33 8.58 0.66 13 1 C13 1.33 13 1.66 13 2 C6.565 2.495 6.565 2.495 0 3 C0 2.01 0 1.02 0 0 Z " fill="#B1B1B5" transform="translate(198,369)"/>
<path d="M0 0 C-0.33 0.99 -0.66 1.98 -1 3 C-5.95 2.67 -10.9 2.34 -16 2 C-16 1.67 -16 1.34 -16 1 C-13.70839646 0.83246763 -11.41671509 0.66599948 -9.125 0.5 C-7.84882813 0.4071875 -6.57265625 0.314375 -5.2578125 0.21875 C-3.50763316 0.10123196 -1.75412035 0 0 0 Z " fill="#999798" transform="translate(262,356)"/>
<path d="M0 0 C2.31 0 4.62 0 7 0 C7 1.32 7 2.64 7 4 C5.68 4 4.36 4 3 4 C3 3.01 3 2.02 3 1 C2.01 0.67 1.02 0.34 0 0 Z " fill="#B2B6B9" transform="translate(239,335)"/>
<path d="M0 0 C0.66 0 1.32 0 2 0 C2 2.64 2 5.28 2 8 C1.01 8 0.02 8 -1 8 C-1 6.35 -1 4.7 -1 3 C-0.34 3 0.32 3 1 3 C0.67 2.01 0.34 1.02 0 0 Z " fill="#DADEE3" transform="translate(203,304)"/>
<path d="M0 0 C2.97 0.495 2.97 0.495 6 1 C6 1.99 6 2.98 6 4 C3.03 3.505 3.03 3.505 0 3 C0 2.01 0 1.02 0 0 Z " fill="#0A0C18" transform="translate(262,290)"/>
<path d="M0 0 C0.33 0.66 0.66 1.32 1 2 C2.32 2 3.64 2 5 2 C5 2.66 5 3.32 5 4 C2.36 4 -0.28 4 -3 4 C-2.01 2.68 -1.02 1.36 0 0 Z " fill="#0A0D13" transform="translate(227,310)"/>
<path d="M0 0 C0.99 0 1.98 0 3 0 C5 3 5 3 5 6 C4.34 6 3.68 6 3 6 C3 5.34 3 4.68 3 4 C2.01 3.67 1.02 3.34 0 3 C0 2.01 0 1.02 0 0 Z " fill="#F26510" transform="translate(307,274)"/>
<path d="M0 0 C2.31 0 4.62 0 7 0 C7.33 1.32 7.66 2.64 8 4 C2.25 2.25 2.25 2.25 0 0 Z " fill="#330B00" transform="translate(282,235)"/>
<path d="M0 0 C0.99 0 1.98 0 3 0 C3.33 1.65 3.66 3.3 4 5 C2.66666667 5 1.33333333 5 0 5 C0 3.35 0 1.7 0 0 Z " fill="#080D13" transform="translate(239,336)"/>
<path d="M0 0 C1.32 0.33 2.64 0.66 4 1 C3.34 2.98 2.68 4.96 2 7 C1.67 7 1.34 7 1 7 C0.67 4.69 0.34 2.38 0 0 Z " fill="#E66816" transform="translate(315,275)"/>
</svg>
